HIERARCHY
ROOT Hips
{
	OFFSET 0.00000 0.00000 0.00000
	CHANNELS 6 Xposition Yposition Zposition Zrotation Yrotation Xrotation 
	JOINT RightUpLegDummy
	{
		OFFSET 0 0 0
		CHANNELS 3 Zrotation Yrotation Xrotation
		JOINT RightUpLeg
		{
			OFFSET -3.52197 -3.41223 0.04002
			CHANNELS 3 Zrotation Yrotation Xrotation
			JOINT RightLeg
			{
				OFFSET 0.00006 -17.42390 1.60435
				CHANNELS 3 Zrotation Yrotation Xrotation
				JOINT RightFoot
				{
					OFFSET 0.06153 -16.50078 -1.63901
					CHANNELS 3 Zrotation Yrotation Xrotation
					JOINT RightToes
					{
						OFFSET 0.00298 -1.73825 3.34613
						CHANNELS 3 Zrotation Yrotation Xrotation
						End Site
						{
							OFFSET 0.00480 -0.05416 3.85043
						}
					}
				}
			}
		}
	}
	JOINT SpineDummy
	{
		OFFSET 0 0 0
		CHANNELS 3 Zrotation Yrotation Xrotation
		JOINT Spine
		{
			OFFSET 0.00000 4.68130 0.00000
			CHANNELS 3 Zrotation Yrotation Xrotation
			JOINT Spine1
			{
				OFFSET -0.00000 10.10138 0.05002
				CHANNELS 3 Zrotation Yrotation Xrotation
				JOINT HEadDummy
				{
					OFFSET 0 0 0
					CHANNELS 3 Zrotation Yrotation Xrotation
					JOINT Head
					{
						OFFSET -0.00000 3.43865 0.00438
						CHANNELS 3 Zrotation Yrotation Xrotation
						End Site
						{
							OFFSET -0.11417 5.02924 0.98962
						}
					}
				}
				JOINT LeftShoulder1Dummy
				{
					OFFSET 0 0 0
					CHANNELS 3 Zrotation Yrotation Xrotation
					JOINT LeftShoulder1
					{
						OFFSET 3.53937 -0.14262 -0.08662
						CHANNELS 3 Zrotation Yrotation Xrotation
						JOINT LeftArm
						{
							OFFSET 4.04833 -0.00133 0.12681
							CHANNELS 3 Zrotation Yrotation Xrotation
							JOINT LeftForeArm
							{
								OFFSET 10.33880 -0.01036 -0.55515
								CHANNELS 3 Zrotation Yrotation Xrotation
								JOINT LeftHand
								{
									OFFSET 8.69677 0.07543 0.40060
									CHANNELS 3 Zrotation Yrotation Xrotation
									End Site
									{
										OFFSET 5.28377 -0.21905 0.59205
									}
								}
							}
						}
					}
				}
				JOINT RightShoulderDummy
				{
					OFFSET 0 0 0
					CHANNELS 3 Zrotation Yrotation Xrotation
					JOINT RightShoulder
					{
						OFFSET -3.53937 -0.14262 -0.08660
						CHANNELS 3 Zrotation Yrotation Xrotation
						JOINT RightArm
						{
							OFFSET -4.04833 -0.00133 0.12683
							CHANNELS 3 Zrotation Yrotation Xrotation
							JOINT RightForeArm
							{
								OFFSET -10.37987 -0.01039 -0.55511
								CHANNELS 3 Zrotation Yrotation Xrotation
								JOINT RightHand
								{
									OFFSET -8.67398 0.07538 0.40058
									CHANNELS 3 Zrotation Yrotation Xrotation
									End Site
									{
										OFFSET -5.24810 -0.21916 0.59204
									}
								}
							}
						}
					}
				}
			}
		}
	}
	JOINT LeftUpLegDummy
	{
		OFFSET 0 0 0
		CHANNELS 3 Zrotation Yrotation Xrotation
		JOINT LeftUpLeg
		{
			OFFSET 3.52197 -3.41223 0.04002
			CHANNELS 3 Zrotation Yrotation Xrotation
			JOINT LeftLeg
			{
				OFFSET -0.00012 -17.42399 1.60337
				CHANNELS 3 Zrotation Yrotation Xrotation
				JOINT LeftFoot
				{
					OFFSET -0.09972 -16.50070 -1.63802
					CHANNELS 3 Zrotation Yrotation Xrotation
					JOINT LeftToes
					{
						OFFSET -0.01575 -1.73823 3.34611
						CHANNELS 3 Zrotation Yrotation Xrotation
						End Site
						{
							OFFSET 0.03150 -0.01868 3.85031
						}
					}
				}
			}
		}
	}
}
MOTION
Frames: 19
Frame Time: 0.033333
-45.0725 39.7762 82.0457 178.5250 0.0029 177.8480 0.0000 0.0000 0.0000 4.2439 -0.9459 1.7732 -0.9032 -6.0354 4.9298 -6.0739 0.3128 -5.1691 0.0000 -0.0000 -0.0000 0.0000 0.0000 0.0000 -1.7522 -0.6680 -2.4123 3.9981 -1.4890 4.8562 -0.0000 0.0000 -0.0000 -0.4690 3.8049 21.6684 -0.0000 0.0000 -0.0000 -34.4765 -3.1582 2.6986 -42.6248 -19.7057 -30.0210 -1.5079 4.9081 57.3653 15.3533 -2.2350 -0.9918 -0.0000 0.0000 -0.0000 33.8918 4.9564 3.3757 40.6100 5.2439 -16.4678 10.7737 -1.9585 27.5675 -11.1482 2.6148 -0.7477 0.0000 0.0000 0.0000 1.7411 1.7786 2.2010 0.8437 1.3258 5.2033 -0.1435 0.0368 -5.5580 0.0000 0.0000 -0.0000
-45.0029 39.7715 82.0069 178.6540 0.2237 178.1160 0.0000 0.0000 0.0000 4.4897 -0.7991 1.6410 -0.8331 -5.9715 4.7063 -6.1826 0.3195 -5.0741 0.0000 -0.0000 -0.0000 0.0000 0.0000 0.0000 -1.6545 -0.6027 -2.6732 4.0810 -1.4460 4.9109 -0.0000 0.0000 -0.0000 -0.6797 3.7043 21.2226 -0.0000 0.0000 -0.0000 -34.2273 -3.1334 2.6718 -42.9499 -17.2810 -29.6500 -2.1142 4.9496 56.0411 16.8100 -1.4447 -0.9740 -0.0000 0.0000 -0.0000 34.2280 5.0081 3.4254 40.3239 4.7462 -16.2578 10.9120 -1.2675 26.5662 -11.4164 2.1210 -0.7204 0.0000 0.0000 0.0000 1.9701 1.8488 1.8894 0.9139 1.4464 5.4251 -0.3312 0.0489 -5.6877 0.0000 0.0000 -0.0000
-44.9337 39.7522 82.0147 178.6320 -0.2696 178.5090 0.0000 0.0000 0.0000 4.4244 -0.9875 1.1153 -0.5716 -6.2785 4.9084 -6.3176 0.3216 -5.1761 0.0000 -0.0000 -0.0000 0.0000 0.0000 0.0000 -1.7695 -0.8302 -3.1380 4.2325 -1.7147 5.2575 -0.0000 0.0000 -0.0000 -0.9260 3.2465 20.5157 -0.0000 0.0000 -0.0000 -33.9800 -3.1397 2.6577 -43.7820 -14.9128 -27.8596 -3.7230 5.0194 53.6731 19.0945 -0.4790 -0.9671 -0.0000 0.0000 -0.0000 34.7552 5.1307 3.5206 39.8060 4.4274 -16.1206 11.0192 -0.6354 25.1973 -12.3012 1.1691 -0.6857 0.0000 0.0000 0.0000 1.9525 1.5982 1.0626 1.0667 1.2279 6.0533 -0.4386 0.0558 -5.8040 0.0000 0.0000 -0.0000
-44.8614 39.7230 82.0321 178.4880 -1.0224 178.7510 0.0000 0.0000 0.0000 4.2104 -1.3228 0.6365 -0.3051 -6.6895 5.3524 -6.5293 0.3162 -5.4531 0.0000 -0.0000 -0.0000 0.0000 0.0000 0.0000 -1.9410 -1.1813 -3.1263 4.3335 -2.0896 5.2655 -0.0000 0.0000 -0.0000 -1.0158 3.0362 19.8939 -0.0000 0.0000 -0.0000 -34.1222 -3.0332 2.6245 -44.2100 -13.4494 -27.0577 -4.5957 5.0508 52.4958 19.1963 -2.7606 -1.3269 -0.0000 0.0000 -0.0000 34.7441 5.1487 3.5271 39.9069 4.4373 -16.0870 11.0246 -0.4880 24.9029 -12.6111 1.1980 -0.7050 0.0000 0.0000 0.0000 1.8357 1.2584 0.3527 1.1385 0.8261 6.6958 -0.4664 0.0576 -5.9966 0.0000 0.0000 -0.0000
-44.7688 39.6921 82.0076 178.4600 -1.2464 178.7840 0.0000 0.0000 0.0000 4.2865 -1.3674 0.5407 -0.2442 -6.8521 5.5877 -6.7580 0.3100 -5.7396 0.0000 -0.0000 -0.0000 0.0000 0.0000 0.0000 -1.7070 -1.2444 -2.6088 4.1006 -2.1070 4.7419 -0.0000 0.0000 -0.0000 -0.8664 2.9561 19.4882 -0.0000 0.0000 -0.0000 -34.4216 -2.8429 2.5676 -44.5342 -12.4948 -26.5553 -5.3295 5.1263 49.8529 16.6735 -4.3287 -1.3702 -0.0000 0.0000 -0.0000 34.4435 5.0755 3.4710 40.4684 4.3374 -16.0712 10.9974 -0.5401 25.6514 -11.7325 2.4151 -0.7688 0.0000 0.0000 0.0000 2.0199 1.3432 0.0817 0.9916 0.4489 7.2057 -0.6776 0.0676 -6.3728 0.0000 0.0000 -0.0000
-44.6755 39.6528 81.9758 178.4820 -1.0712 178.6870 0.0000 0.0000 0.0000 4.5120 -1.2087 0.4976 -0.3735 -6.8266 6.0021 -6.8788 0.2894 -6.1547 0.0000 -0.0000 -0.0000 0.0000 0.0000 0.0000 -1.2064 -1.0676 -2.0512 3.5773 -1.8317 4.2635 -0.0000 0.0000 -0.0000 -0.6182 2.4339 19.1124 -0.0000 0.0000 -0.0000 -34.5072 -2.7559 2.5378 -44.9987 -12.2859 -26.0883 -5.8654 5.2052 46.9949 14.4836 -4.0447 -1.1459 -0.0000 0.0000 -0.0000 34.4411 5.0436 3.4580 40.7546 4.2003 -16.1471 10.9338 -0.6704 26.5770 -11.0460 3.1652 -0.7894 0.0000 0.0000 0.0000 2.3778 1.7839 -0.0705 0.6771 0.0903 7.8948 -1.0249 0.0814 -6.8230 0.0000 0.0000 -0.0000
-44.5901 39.5827 81.9811 178.4200 -0.9985 178.5990 0.0000 0.0000 0.0000 4.6198 -1.1334 -0.0147 -0.5689 -6.8456 7.2510 -6.9537 0.2451 -6.8933 0.0000 -0.0000 -0.0000 0.0000 0.0000 0.0000 -0.8707 -0.9980 -1.7987 3.1494 -1.6920 4.3171 -0.0000 0.0000 -0.0000 -0.5263 1.6331 18.5659 -0.0000 0.0000 -0.0000 -34.3774 -2.8059 2.5498 -45.3809 -13.0055 -25.9182 -5.8791 5.2298 46.0950 14.7400 -2.9999 -1.0422 -0.0000 0.0000 -0.0000 34.6825 5.0905 3.4980 40.6406 4.4489 -16.2997 10.8242 -0.8991 27.0683 -11.7500 2.3952 -0.7673 0.0000 0.0000 0.0000 2.6466 2.2487 -0.5875 0.3214 -0.3674 9.1865 -1.2425 0.0871 -7.4587 0.0000 0.0000 -0.0000
-44.4925 39.4586 82.0082 178.3540 -1.1498 178.5720 0.0000 0.0000 0.0000 4.7110 -1.1741 -1.0601 -0.7994 -6.9872 9.4044 -7.1585 0.1797 -7.9974 0.0000 -0.0000 -0.0000 0.0000 0.0000 0.0000 -0.8160 -1.1766 -1.6994 3.0871 -1.8787 4.6184 -0.0000 0.0000 -0.0000 -0.6297 1.2505 17.9027 -0.0000 0.0000 -0.0000 -34.2283 -2.8415 2.5546 -45.2889 -14.0794 -26.3302 -5.4012 5.2093 46.9649 15.6696 -2.9083 -1.0989 -0.0000 0.0000 -0.0000 34.7281 5.1245 3.5158 40.6124 5.0572 -16.3112 10.7548 -1.0179 27.1413 -12.8171 1.3492 -0.7341 0.0000 0.0000 0.0000 2.8503 2.5516 -1.6293 0.0567 -0.8811 11.2878 -1.4938 0.0867 -8.6208 0.0000 0.0000 -0.0000
-44.3742 39.2775 82.0272 178.4000 -1.3551 178.4810 0.0000 0.0000 0.0000 4.9486 -1.2276 -2.2380 -1.0762 -7.1573 12.0123 -7.4762 0.0935 -9.3813 0.0000 -0.0000 -0.0000 0.0000 0.0000 0.0000 -0.8541 -1.4491 -1.2603 3.3007 -2.2114 4.5618 -0.0000 0.0000 -0.0000 -0.8403 1.3638 17.2760 -0.0000 0.0000 -0.0000 -34.1313 -2.7696 2.5195 -44.7948 -14.7862 -26.5307 -5.2279 5.1972 47.4398 15.1765 -3.6448 -1.1538 -0.0000 0.0000 -0.0000 34.5631 5.1097 3.4953 40.8278 5.5104 -15.9754 10.8370 -0.6354 26.8514 -12.7218 1.4350 -0.7357 0.0000 0.0000 0.0000 3.0994 2.1132 -3.1181 0.1091 -0.6627 14.3852 -2.2030 0.0834 -10.1278 0.0000 0.0000 -0.0000
-44.2565 39.0645 82.0341 178.5050 -1.3662 178.1050 0.0000 0.0000 0.0000 5.2285 -1.2958 -3.0807 -1.2887 -7.0915 14.6226 -7.7490 -0.0089 -10.8818 0.0000 -0.0000 -0.0000 0.0000 0.0000 0.0000 -0.7632 -1.5621 -0.1737 3.4744 -2.3674 4.0676 -0.0000 0.0000 -0.0000 -1.0375 1.3674 16.5072 -0.0000 0.0000 -0.0000 -34.0223 -2.6906 2.4810 -44.2676 -15.1941 -25.7781 -5.7933 5.2064 46.9627 13.5482 -4.3556 -1.1038 -0.0000 0.0000 -0.0000 34.4996 5.0963 3.4844 40.9817 5.4972 -15.3378 11.0620 0.3808 26.0521 -11.6188 2.2563 -0.7470 0.0000 0.0000 0.0000 3.3351 0.5847 -4.8980 0.7598 0.9246 18.7062 -3.0791 0.0731 -11.1291 0.0000 0.0000 -0.0000
-44.1498 38.8552 82.0193 178.6060 -0.8194 177.4550 0.0000 0.0000 0.0000 5.4738 -1.3687 -3.4470 -1.2778 -6.4724 16.9380 -7.9994 -0.1098 -12.2648 0.0000 -0.0000 -0.0000 0.0000 0.0000 0.0000 -0.4049 -1.3133 1.3274 3.3801 -2.0951 3.4636 -0.0000 0.0000 -0.0000 -1.1284 0.9168 15.5023 -0.0000 0.0000 -0.0000 -33.9056 -2.7154 2.4835 -43.7840 -15.7239 -24.7834 -6.4255 5.1995 47.0275 12.2768 -5.1284 -1.0716 -0.0000 0.0000 -0.0000 34.5910 5.1081 3.4971 40.9283 5.1300 -14.6592 11.3079 1.6658 25.0239 -10.6965 2.8428 -0.7358 0.0000 0.0000 0.0000 3.4625 -0.9283 -6.7924 1.9231 2.7966 23.9451 -3.2013 0.0718 -11.1558 0.0000 0.0000 -0.0000
-44.0381 38.6889 81.9661 178.7190 0.3157 176.9030 0.0000 0.0000 0.0000 5.7657 -1.3525 -3.5593 -1.0368 -5.4307 18.6295 -8.3437 -0.1907 -13.2841 0.0000 -0.0000 -0.0000 0.0000 0.0000 0.0000 0.0861 -0.7512 2.6707 3.1750 -1.4698 2.9102 -0.0000 0.0000 -0.0000 -1.0860 0.3293 14.5766 -0.0000 0.0000 -0.0000 -33.8994 -2.7933 2.5142 -43.2740 -16.3232 -24.4104 -6.5895 5.1741 47.8794 12.1622 -6.1147 -1.1581 -0.0000 0.0000 -0.0000 34.6467 5.1141 3.5044 40.7800 4.7136 -14.2073 11.4710 2.5304 24.5460 -10.4929 3.0896 -0.7415 0.0000 0.0000 0.0000 3.5467 -1.6510 -8.7393 2.7767 3.5721 28.7889 -2.3103 0.0763 -10.7483 0.0000 0.0000 -0.0000
-43.9113 38.6028 81.8770 178.7990 1.6461 176.7300 0.0000 0.0000 0.0000 6.0660 -1.2578 -3.5785 -0.6794 -4.3632 19.3912 -8.6940 -0.2381 -13.8054 0.0000 -0.0000 -0.0000 0.0000 0.0000 0.0000 0.4461 -0.1719 3.2533 3.0358 -0.8428 2.8008 -0.0000 0.0000 -0.0000 -0.9622 0.1307 13.5749 -0.0000 0.0000 -0.0000 -33.9046 -2.7859 2.5116 -43.0028 -16.8208 -24.3067 -6.6289 5.1711 47.9716 13.2514 -6.6412 -1.3228 -0.0000 0.0000 -0.0000 34.5772 5.1011 3.4931 40.6581 4.8497 -14.1610 11.4853 2.3291 25.0404 -10.8557 3.1342 -0.7719 0.0000 0.0000 0.0000 3.5491 -2.0084 -10.6934 2.6327 2.9966 31.6826 -1.3103 0.0720 -10.6405 0.0000 0.0000 -0.0000
-43.7849 38.5906 81.7681 178.7200 2.7517 176.7690 0.0000 0.0000 0.0000 6.1640 -1.2394 -3.4373 -0.2952 -3.4570 19.4129 -8.9057 -0.2561 -13.9679 0.0000 -0.0000 -0.0000 0.0000 0.0000 0.0000 0.6433 0.1321 3.6365 2.7628 -0.4656 2.6111 -0.0000 0.0000 -0.0000 -0.8305 0.3216 12.8115 -0.0000 0.0000 -0.0000 -33.7741 -2.6676 2.4563 -43.0535 -16.9186 -23.9370 -6.9219 5.1953 47.0266 15.0137 -6.6307 -1.5071 -0.0000 0.0000 -0.0000 34.5767 5.0999 3.4926 40.5824 5.3992 -14.4596 11.3789 1.2981 25.9705 -11.5381 2.7847 -0.7900 0.0000 0.0000 0.0000 3.3045 -3.1186 -12.4549 1.8774 1.9654 32.0540 -1.0394 0.0702 -10.7127 0.0000 0.0000 -0.0000
-43.6645 38.6134 81.6302 178.4950 3.7466 176.7010 0.0000 0.0000 0.0000 6.0971 -1.2720 -2.9751 0.0493 -2.5612 19.1080 -9.1230 -0.2623 -13.9827 0.0000 -0.0000 -0.0000 0.0000 0.0000 0.0000 0.7995 0.1988 4.0654 2.2591 -0.2862 2.5303 -0.0000 0.0000 -0.0000 -0.7334 0.6196 11.9004 -0.0000 0.0000 -0.0000 -33.5589 -2.5812 2.4087 -43.1122 -16.8640 -23.6324 -7.2168 5.2242 45.8868 15.9961 -6.8641 -1.6402 -0.0000 0.0000 -0.0000 34.6531 5.1171 3.5062 40.6131 6.1283 -14.8571 11.2366 0.2068 26.3872 -12.1014 2.1220 -0.7662 0.0000 0.0000 0.0000 2.9017 -5.3077 -13.7568 1.3707 1.4066 30.3844 -0.9195 0.0703 -10.2289 0.0000 0.0000 -0.0000
-43.5354 38.6600 81.4519 178.2740 4.9434 176.5080 0.0000 0.0000 0.0000 6.1116 -1.1722 -2.1517 0.2742 -1.5746 18.4798 -9.4967 -0.2597 -13.8540 0.0000 -0.0000 -0.0000 0.0000 0.0000 0.0000 0.8120 0.3432 4.2568 2.0315 -0.0935 3.0585 -0.0000 0.0000 -0.0000 -0.8657 0.7357 10.5602 -0.0000 0.0000 -0.0000 -33.5629 -2.6319 2.4291 -42.9404 -17.0189 -23.6978 -7.2745 5.2509 44.8772 15.0895 -7.2774 -1.5954 -0.0000 0.0000 -0.0000 34.4273 5.0853 3.4736 40.9189 6.8318 -15.0665 11.1534 -0.2791 26.0121 -12.2951 1.5378 -0.7213 0.0000 0.0000 0.0000 2.5840 -7.9330 -14.6494 1.3436 1.5450 27.4188 0.1099 0.0462 -8.6042 0.0000 0.0000 -0.0000
-43.3938 38.7281 81.2594 178.1350 6.3850 176.4620 0.0000 0.0000 0.0000 6.2559 -0.9204 -1.3168 0.4188 -0.5161 17.5495 -9.8197 -0.2418 -13.5734 0.0000 -0.0000 -0.0000 0.0000 0.0000 0.0000 0.7206 0.6445 3.9373 2.1478 0.1771 4.2427 -0.0000 0.0000 -0.0000 -1.2283 0.8278 8.8774 -0.0000 0.0000 -0.0000 -33.7691 -2.7402 2.4848 -42.7479 -17.4801 -23.8108 -7.2222 5.2721 44.0915 13.4805 -6.9913 -1.3850 -0.0000 0.0000 -0.0000 34.0698 5.0393 3.4241 41.1910 7.5012 -14.8968 11.2010 -0.1740 25.3213 -12.5468 1.0997 -0.6920 0.0000 0.0000 0.0000 2.4145 -10.2448 -15.5604 1.4204 1.9375 23.6490 1.5243 -0.0407 -5.7379 0.0000 0.0000 -0.0000
-43.2535 38.7794 81.0730 178.0250 7.8554 176.7010 0.0000 0.0000 0.0000 6.3628 -0.6960 -0.9109 0.6432 0.6142 16.8620 -9.9329 -0.2261 -13.3758 0.0000 -0.0000 -0.0000 0.0000 0.0000 0.0000 0.7057 0.9140 3.6948 2.1858 0.4403 5.0054 -0.0000 0.0000 -0.0000 -1.6347 1.2314 7.2852 -0.0000 0.0000 -0.0000 -33.9084 -2.7840 2.5111 -42.8022 -17.9392 -23.9185 -7.0438 5.2615 44.5515 13.4056 -6.3387 -1.3062 -0.0000 0.0000 -0.0000 34.0015 5.0465 3.4211 41.1326 7.8766 -14.4364 11.3491 0.2201 24.9086 -13.2331 0.7401 -0.6925 0.0000 0.0000 0.0000 2.2131 -11.7750 -16.7979 1.2932 2.0502 19.5846 1.7258 -0.1205 -2.2082 0.0000 0.0000 -0.0000
-43.1116 38.7942 80.8595 177.9220 9.1587 176.9980 0.0000 0.0000 0.0000 6.4126 -0.5755 -0.7116 0.9558 1.7362 16.5952 -10.1274 -0.2321 -13.4028 0.0000 -0.0000 -0.0000 0.0000 0.0000 0.0000 0.8534 0.9641 3.9046 1.8709 0.5705 5.0132 -0.0000 0.0000 -0.0000 -1.9115 2.0030 5.9630 -0.0000 0.0000 -0.0000 -33.7541 -2.7482 2.4871 -43.1176 -18.2327 -24.4101 -6.5414 5.2152 46.4271 14.8826 -6.3664 -1.4619 -0.0000 0.0000 -0.0000 34.3008 5.1116 3.4732 40.8155 7.9692 -14.0095 11.4844 0.5709 24.8056 -13.8274 0.6657 -0.7158 0.0000 0.0000 0.0000 1.5800 -11.8083 -18.1331 0.8527 1.2701 15.8861 0.2873 -0.0342 0.7836 0.0000 0.0000 -0.0000
